<svg preserveAspectRatio="none" width="100%" height="100%" overflow="visible" style="display: block;" viewBox="0 0 24 24" fill="none" xmlns="http://www.w3.org/2000/svg">
<g id="Ico">
<path id="Vector (Stroke)" d="M13.3645 4.35061C14.6687 3.42889 16.6358 2.60268 18.8942 3.45706C18.9053 3.46125 18.9151 3.46909 18.9259 3.47366C18.9358 3.47763 18.9479 3.48118 18.9605 3.48636C19.0038 3.50421 19.0624 3.52944 19.1337 3.56253C19.2765 3.6288 19.4718 3.7275 19.6987 3.86331C20.1507 4.13379 20.7408 4.55925 21.2919 5.18167C22.4201 6.45583 23.3123 8.48002 22.6852 11.4434L22.6862 11.4444L22.6852 11.4463C22.6851 11.4472 22.6854 11.4483 22.6852 11.4492C22.6848 11.4517 22.6839 11.455 22.6833 11.458C22.6821 11.464 22.681 11.4714 22.6793 11.4795C22.6758 11.496 22.6706 11.5168 22.6645 11.542C22.6522 11.5928 22.6343 11.661 22.6091 11.7451C22.5585 11.9135 22.4786 12.1466 22.3547 12.4356C22.1068 13.014 21.6848 13.8139 20.9773 14.7686C19.5608 16.6797 17.0126 19.1928 12.4571 21.793C12.1744 21.9543 11.8253 21.9545 11.5427 21.793C6.98758 19.1889 4.43988 16.6755 3.02353 14.7657C2.31593 13.8115 1.89398 13.0124 1.64605 12.4346C1.52221 12.146 1.44232 11.9133 1.39174 11.7451C1.36645 11.6611 1.34859 11.5927 1.33632 11.542C1.33023 11.5168 1.32501 11.496 1.32148 11.4795C1.32041 11.4746 1.31937 11.47 1.31851 11.4658L1.21757 10.919C0.795814 8.2397 1.64799 6.38001 2.70687 5.18265C3.2573 4.56032 3.84662 4.13469 4.29711 3.86429C4.52334 3.7285 4.71779 3.62957 4.85918 3.56351C4.93 3.53042 4.98774 3.50573 5.02939 3.48831C5.04282 3.48269 5.05458 3.47847 5.06402 3.47464C5.056 3.47814 5.04231 3.48395 5.02741 3.49124C5.02069 3.49463 5.00853 3.50271 4.99277 3.51175C5.02925 3.49189 5.06675 3.47213 5.10657 3.45706C7.36558 2.60251 9.33567 3.4312 10.6402 4.35354C11.1979 4.74784 11.6561 5.17552 11.9999 5.53323C12.3443 5.17447 12.805 4.74609 13.3645 4.35061ZM11.2508 7.43948C11.2475 7.43501 11.2414 7.42639 11.233 7.41507C11.216 7.39239 11.1886 7.35686 11.1518 7.31058C11.0779 7.21735 10.966 7.08135 10.8193 6.92093C10.5236 6.59753 10.0987 6.18494 9.57744 5.81643C8.52923 5.07539 7.21918 4.58999 5.77057 5.13284C5.76958 5.13324 5.76914 5.13458 5.76859 5.13479C5.76727 5.13532 5.76584 5.13529 5.76463 5.13577C5.75959 5.1378 5.75132 5.14117 5.74089 5.14554C5.7199 5.15431 5.68555 5.16916 5.63995 5.19046C5.54798 5.23343 5.41024 5.30327 5.24511 5.40237C4.91294 5.60176 4.48074 5.91472 4.08138 6.36624C3.35927 7.18274 2.68132 8.517 3.02155 10.6553L3.10369 11.0938L3.10765 11.1143V11.1123C3.10739 11.111 3.10681 11.1092 3.10666 11.1084V11.1075C3.10698 11.109 3.10832 11.1146 3.11061 11.1241C3.11537 11.1437 3.12458 11.1802 3.1403 11.2325C3.1719 11.3375 3.2287 11.5072 3.32535 11.7325C3.51855 12.1827 3.87103 12.8607 4.49502 13.7022C5.69795 15.3243 7.92492 17.57 11.9999 19.9678C16.075 17.5737 18.3018 15.3291 19.5048 13.7061C20.1288 12.8641 20.4812 12.1854 20.6744 11.7344C20.7712 11.5087 20.8289 11.3388 20.8605 11.2334C20.8763 11.1809 20.8854 11.1438 20.8902 11.1241C20.8925 11.1144 20.8939 11.1087 20.8941 11.1075C20.895 11.103 20.8962 11.0982 20.8971 11.0938C21.4095 8.69707 20.6894 7.23698 19.9184 6.36624C19.5186 5.91475 19.0857 5.60163 18.7527 5.40237C18.5875 5.3035 18.4499 5.23417 18.3579 5.19143C18.3119 5.17011 18.2772 5.15583 18.2569 5.14749C18.2469 5.14333 18.2399 5.14074 18.2371 5.13968L18.2362 5.1387L18.2381 5.13968L18.2391 5.14065H18.2401V5.13968C18.2329 5.13702 18.2264 5.13273 18.2193 5.12991C16.7743 4.593 15.4703 5.07571 14.4263 5.81351C13.906 6.18126 13.4815 6.59323 13.1854 6.91702C13.0384 7.07781 12.9247 7.2145 12.8499 7.30862C12.8127 7.35549 12.7856 7.39237 12.7678 7.41604C12.7591 7.42768 12.7524 7.43643 12.748 7.44241C12.744 7.44792 12.7452 7.44565 12.7411 7.4512C12.7403 7.45225 12.7378 7.45544 12.7351 7.45901C12.7341 7.46047 12.7309 7.46568 12.7262 7.47171C12.7236 7.4751 12.7159 7.48375 12.7114 7.48929C12.7026 7.49988 12.6702 7.53679 12.6451 7.56253C12.4544 7.75068 12.1893 7.84552 11.9207 7.82229C11.6523 7.79897 11.4073 7.66032 11.2528 7.44241C11.2523 7.44174 11.2517 7.44072 11.2508 7.43948ZM4.89579 3.56936C4.89346 3.57196 4.89213 3.57543 4.88986 3.57815C4.90293 3.56855 4.91578 3.55878 4.92944 3.54983C4.91812 3.55691 4.90591 3.56256 4.89579 3.56936ZM5.0759 3.46976C5.07241 3.47116 5.06846 3.47283 5.06402 3.47464C5.06896 3.47248 5.07186 3.47077 5.07194 3.47073C5.07326 3.47017 5.07476 3.47023 5.0759 3.46976ZM5.08282 3.46683C5.08219 3.46708 5.08071 3.46801 5.07886 3.46878C5.08101 3.46792 5.08252 3.46637 5.08381 3.46585C5.08519 3.4653 5.08579 3.46487 5.08579 3.46487C5.08556 3.46497 5.08435 3.4662 5.08282 3.46683Z" fill="var(--fill-0, #191919)"/>
</g>
</svg>
