<svg preserveAspectRatio="none" width="100%" height="100%" overflow="visible" style="display: block;" viewBox="0 0 12 12" fill="none" xmlns="http://www.w3.org/2000/svg">
<g id="moretabIcoPlaycount">
<g id="Vector">
<path d="M2.28436 10.8278C2.85866 11.0146 4.12603 11.1396 5.9998 11.1396C7.87357 11.1396 8.83052 11.0718 9.5766 10.8278C10.3227 10.5837 10.6613 10.0212 10.4263 9.41809C10.0369 8.41948 8.96181 7.23358 5.96111 7.23358C2.96041 7.23358 1.96065 8.42594 1.57134 9.42455C1.33625 10.0277 1.71007 10.6409 2.28436 10.8278Z" fill="var(--fill-0, #767676)"/>
<path d="M5.96174 6.54642C7.39411 6.54642 8.55526 5.38526 8.55526 3.9529C8.55526 2.52053 7.39411 1.35938 5.96174 1.35938C4.52938 1.35938 3.36822 2.52053 3.36822 3.9529C3.36822 5.38526 4.52938 6.54642 5.96174 6.54642Z" fill="var(--fill-0, #767676)"/>
</g>
</g>
</svg>
